<svg width="80" height="80" viewBox="0 0 80 80" fill="none" xmlns="http://www.w3.org/2000/svg">
<g clip-path="url(#clip0_181_1199)">
<path d="M2.5 5C1.83696 5 1.20107 5.26339 0.732233 5.73223C0.263392 6.20107 0 6.83696 0 7.5C0 8.16304 0.263392 8.79893 0.732233 9.26777C1.20107 9.73661 1.83696 10 2.5 10H8.05L10.055 18.035L17.545 57.96C17.6522 58.5329 17.9563 59.0503 18.4046 59.4228C18.8528 59.7953 19.4172 59.9995 20 60H25C22.3478 60 19.8043 61.0536 17.9289 62.9289C16.0536 64.8043 15 67.3478 15 70C15 72.6522 16.0536 75.1957 17.9289 77.0711C19.8043 78.9464 22.3478 80 25 80C27.6522 80 30.1957 78.9464 32.0711 77.0711C33.9464 75.1957 35 72.6522 35 70C35 67.3478 33.9464 64.8043 32.0711 62.9289C30.1957 61.0536 27.6522 60 25 60H60C57.3478 60 54.8043 61.0536 52.9289 62.9289C51.0536 64.8043 50 67.3478 50 70C50 72.6522 51.0536 75.1957 52.9289 77.0711C54.8043 78.9464 57.3478 80 60 80C62.6522 80 65.1957 78.9464 67.0711 77.0711C68.9464 75.1957 70 72.6522 70 70C70 67.3478 68.9464 64.8043 67.0711 62.9289C65.1957 61.0536 62.6522 60 60 60H65C65.5828 59.9995 66.1472 59.7953 66.5955 59.4228C67.0437 59.0503 67.3478 58.5329 67.455 57.96L74.955 17.96C75.0225 17.5992 75.0098 17.2279 74.9177 16.8726C74.8255 16.5173 74.6563 16.1866 74.422 15.904C74.1876 15.6215 73.8939 15.394 73.5618 15.2378C73.2296 15.0815 72.8671 15.0003 72.5 15H14.45L12.425 6.895C12.29 6.35392 11.9781 5.87349 11.5387 5.53012C11.0993 5.18675 10.5577 5.00015 10 5H2.5ZM30 70C30 71.3261 29.4732 72.5979 28.5355 73.5355C27.5979 74.4732 26.3261 75 25 75C23.6739 75 22.4021 74.4732 21.4645 73.5355C20.5268 72.5979 20 71.3261 20 70C20 68.6739 20.5268 67.4021 21.4645 66.4645C22.4021 65.5268 23.6739 65 25 65C26.3261 65 27.5979 65.5268 28.5355 66.4645C29.4732 67.4021 30 68.6739 30 70ZM65 70C65 71.3261 64.4732 72.5979 63.5355 73.5355C62.5979 74.4732 61.3261 75 60 75C58.6739 75 57.4021 74.4732 56.4645 73.5355C55.5268 72.5979 55 71.3261 55 70C55 68.6739 55.5268 67.4021 56.4645 66.4645C57.4021 65.5268 58.6739 65 60 65C61.3261 65 62.5979 65.5268 63.5355 66.4645C64.4732 67.4021 65 68.6739 65 70ZM36.77 28.23L42.5 33.965L48.23 28.23C48.6994 27.7606 49.3361 27.4968 50 27.4968C50.6639 27.4968 51.3006 27.7606 51.77 28.23C52.2394 28.6994 52.5032 29.3361 52.5032 30C52.5032 30.6639 52.2394 31.3006 51.77 31.77L46.035 37.5L51.77 43.23C52.2394 43.6994 52.5032 44.3361 52.5032 45C52.5032 45.6639 52.2394 46.3006 51.77 46.77C51.3006 47.2394 50.6639 47.5032 50 47.5032C49.3361 47.5032 48.6994 47.2394 48.23 46.77L42.5 41.035L36.77 46.77C36.5376 47.0024 36.2616 47.1868 35.9579 47.3126C35.6542 47.4384 35.3287 47.5032 35 47.5032C34.6713 47.5032 34.3458 47.4384 34.0421 47.3126C33.7384 47.1868 33.4624 47.0024 33.23 46.77C32.9976 46.5376 32.8132 46.2616 32.6874 45.9579C32.5616 45.6542 32.4968 45.3287 32.4968 45C32.4968 44.6713 32.5616 44.3458 32.6874 44.0421C32.8132 43.7384 32.9976 43.4624 33.23 43.23L38.965 37.5L33.23 31.77C32.9976 31.5376 32.8132 31.2616 32.6874 30.9579C32.5616 30.6542 32.4968 30.3287 32.4968 30C32.4968 29.6713 32.5616 29.3458 32.6874 29.0421C32.8132 28.7384 32.9976 28.4624 33.23 28.23C33.4624 27.9976 33.7384 27.8132 34.0421 27.6874C34.3458 27.5616 34.6713 27.4968 35 27.4968C35.3287 27.4968 35.6542 27.5616 35.9579 27.6874C36.2616 27.8132 36.5376 27.9976 36.77 28.23Z" fill="white"/>
</g>
<defs>
<clipPath id="clip0_181_1199">
<rect width="80" height="80" fill="white"/>
</clipPath>
</defs>
</svg>
