<svg width="31" height="31" viewBox="0 0 31 31" fill="none" xmlns="http://www.w3.org/2000/svg">
<path d="M15.4998 26C11.854 26 8.63109 24.1334 6.74984 21.3334C6.79359 18.4167 12.5832 16.8125 15.4998 16.8125C18.4165 16.8125 24.2061 18.4167 24.2498 21.3334C23.2857 22.7689 21.9834 23.9455 20.4575 24.7592C18.9317 25.573 17.2291 25.9991 15.4998 26ZM15.4998 5.29169C16.6602 5.29169 17.773 5.75262 18.5934 6.57309C19.4139 7.39357 19.8748 8.50636 19.8748 9.66669C19.8748 10.827 19.4139 11.9398 18.5934 12.7603C17.773 13.5808 16.6602 14.0417 15.4998 14.0417C14.3395 14.0417 13.2267 13.5808 12.4062 12.7603C11.5858 11.9398 11.1248 10.827 11.1248 9.66669C11.1248 8.50636 11.5858 7.39357 12.4062 6.57309C13.2267 5.75262 14.3395 5.29169 15.4998 5.29169ZM15.4998 0.916687C13.5847 0.916687 11.6884 1.2939 9.91904 2.02678C8.1497 2.75966 6.54205 3.83386 5.18786 5.18805C2.45296 7.92295 0.916504 11.6323 0.916504 15.5C0.916504 19.3678 2.45296 23.0771 5.18786 25.812C6.54205 27.1662 8.1497 28.2404 9.91904 28.9733C11.6884 29.7061 13.5847 30.0834 15.4998 30.0834C19.3676 30.0834 23.0769 28.5469 25.8118 25.812C28.5467 23.0771 30.0832 19.3678 30.0832 15.5C30.0832 7.43544 23.5207 0.916687 15.4998 0.916687Z" fill="white"/>
</svg>
