<svg width="50" height="50" viewBox="0 0 50 50" fill="none" xmlns="http://www.w3.org/2000/svg">
<circle cx="25" cy="25" r="25" fill="#C4C4C4" fill-opacity="0.4"/>
<path opacity="0.5" d="M39 38.4246L31.65 32.4627L32.532 34.8474H14.5C13.5717 34.8474 12.6815 34.5334 12.0251 33.9743C11.3687 33.4153 11 32.6571 11 31.8665V13.9809C11 13.1903 11.3687 12.4321 12.0251 11.8731C12.6815 11.3141 13.5717 11 14.5 11H35.5C36.4283 11 37.3185 11.3141 37.9749 11.8731C38.6313 12.4321 39 13.1903 39 13.9809V38.4246ZM25 17.9158C21.248 17.9158 18.616 19.287 18.616 19.287C20.058 18.19 22.578 17.558 22.578 17.558L22.34 17.3553C19.974 17.3911 17.832 18.7862 17.832 18.7862C15.424 23.0668 15.578 26.7632 15.578 26.7632C17.538 28.9214 20.45 28.7663 20.45 28.7663L21.444 27.6932C19.694 27.3713 18.588 26.0477 18.588 26.0477C18.588 26.0477 21.22 27.574 25 27.574C28.78 27.574 31.412 26.0477 31.412 26.0477C31.412 26.0477 30.306 27.3713 28.556 27.6932L29.55 28.7663C29.55 28.7663 32.462 28.9214 34.422 26.7632C34.422 26.7632 34.576 23.0668 32.168 18.7862C32.168 18.7862 30.026 17.3911 27.66 17.3553L27.422 17.558C27.422 17.558 29.942 18.19 31.384 19.287C31.384 19.287 28.752 17.9158 25 17.9158ZM22.102 22.4348C23.012 22.4348 23.754 23.1145 23.74 23.9492C23.74 24.7719 23.012 25.4635 22.102 25.4635C21.206 25.4635 20.478 24.7719 20.478 23.9492C20.478 23.1145 21.192 22.4348 22.102 22.4348ZM27.94 22.4348C28.85 22.4348 29.578 23.1145 29.578 23.9492C29.578 24.7719 28.85 25.4635 27.94 25.4635C27.044 25.4635 26.316 24.7719 26.316 23.9492C26.316 23.1145 27.03 22.4348 27.94 22.4348Z" fill="black"/>
</svg>
