<svg width="50" height="50" viewBox="0 0 50 50" fill="none" xmlns="http://www.w3.org/2000/svg">
<circle cx="25" cy="25" r="25" fill="#C4C4C4" fill-opacity="0.4"/>
<path opacity="0.5" d="M26 9C16.65 9 9 15.9875 9 24.5934C9 32.3745 15.222 38.8328 23.348 40V29.1064H19.03V24.5934H23.348V21.1541C23.348 17.248 25.881 15.1004 29.774 15.1004C31.627 15.1004 33.565 15.3961 33.565 15.3961V19.24H31.423C29.315 19.24 28.652 20.4383 28.652 21.6677V24.5934H33.378L32.613 29.1064H28.652V40C32.6579 39.4208 36.3057 37.5498 38.9368 34.7245C41.568 31.8992 43.0091 28.306 43 24.5934C43 15.9875 35.35 9 26 9Z" fill="black"/>
</svg>
