<svg width="50" height="50" viewBox="0 0 50 50" fill="none" xmlns="http://www.w3.org/2000/svg">
<circle cx="25" cy="25" r="25" fill="#C4C4C4" fill-opacity="0.4"/>
<path opacity="0.5" d="M19.28 10H32.72C37.84 10 42 13.77 42 18.41V30.59C42 32.8205 41.0223 34.9596 39.282 36.5368C37.5416 38.114 35.1812 39 32.72 39H19.28C14.16 39 10 35.23 10 30.59V18.41C10 16.1795 10.9777 14.0404 12.718 12.4632C14.4584 10.8861 16.8188 10 19.28 10ZM18.96 12.9C17.4324 12.9 15.9673 13.45 14.8871 14.4289C13.8069 15.4078 13.2 16.7356 13.2 18.12V30.88C13.2 33.7655 15.776 36.1 18.96 36.1H33.04C34.5676 36.1 36.0327 35.55 37.1129 34.5711C38.1931 33.5922 38.8 32.2644 38.8 30.88V18.12C38.8 15.2345 36.224 12.9 33.04 12.9H18.96ZM34.4 15.075C34.9304 15.075 35.4391 15.266 35.8142 15.6059C36.1893 15.9458 36.4 16.4068 36.4 16.8875C36.4 17.3682 36.1893 17.8292 35.8142 18.1691C35.4391 18.509 34.9304 18.7 34.4 18.7C33.8696 18.7 33.3609 18.509 32.9858 18.1691C32.6107 17.8292 32.4 17.3682 32.4 16.8875C32.4 16.4068 32.6107 15.9458 32.9858 15.6059C33.3609 15.266 33.8696 15.075 34.4 15.075ZM26 17.25C28.1217 17.25 30.1566 18.0138 31.6569 19.3735C33.1571 20.7331 34 22.5772 34 24.5C34 26.4228 33.1571 28.2669 31.6569 29.6265C30.1566 30.9862 28.1217 31.75 26 31.75C23.8783 31.75 21.8434 30.9862 20.3431 29.6265C18.8429 28.2669 18 26.4228 18 24.5C18 22.5772 18.8429 20.7331 20.3431 19.3735C21.8434 18.0138 23.8783 17.25 26 17.25ZM26 20.15C24.727 20.15 23.5061 20.6083 22.6059 21.4241C21.7057 22.2399 21.2 23.3463 21.2 24.5C21.2 25.6537 21.7057 26.7601 22.6059 27.5759C23.5061 28.3917 24.727 28.85 26 28.85C27.273 28.85 28.4939 28.3917 29.3941 27.5759C30.2943 26.7601 30.8 25.6537 30.8 24.5C30.8 23.3463 30.2943 22.2399 29.3941 21.4241C28.4939 20.6083 27.273 20.15 26 20.15Z" fill="black"/>
</svg>
