<svg width="50" height="50" viewBox="0 0 50 50" fill="none" xmlns="http://www.w3.org/2000/svg">
<circle cx="25" cy="25" r="25" fill="#C4C4C4" fill-opacity="0.4"/>
<path opacity="0.5" d="M42 15.7684C40.7486 16.2528 39.3996 16.5712 38.0019 16.7235C39.4321 15.9899 40.5373 14.8271 41.0574 13.4291C39.7084 14.1212 38.2132 14.6057 36.6367 14.8825C35.3528 13.6921 33.5488 13 31.501 13C27.6816 13 24.5612 15.6576 24.5612 18.9382C24.5612 19.4088 24.6262 19.8656 24.74 20.2947C18.9541 20.0455 13.8021 17.6786 10.3728 14.0935C9.77151 14.9656 9.43021 15.9899 9.43021 17.0695C9.43021 19.132 10.6491 20.9591 12.5344 21.9972C11.3805 21.9972 10.3078 21.7204 9.3652 21.3051V21.3467C9.3652 24.2258 11.7706 26.6343 14.956 27.1741C13.9333 27.4125 12.8596 27.4457 11.8193 27.271C12.2607 28.451 13.1253 29.4835 14.2913 30.2234C15.4574 30.9633 16.8664 31.3733 18.3203 31.3959C15.8558 33.0575 12.801 33.9557 9.65774 33.9428C9.10516 33.9428 8.55258 33.9151 8 33.8598C11.088 35.5485 14.761 36.5312 18.6941 36.5312C31.501 36.5312 38.5382 27.4786 38.5382 19.6303C38.5382 19.3673 38.5382 19.1181 38.522 18.8551C39.8872 18.0246 41.0574 16.9726 42 15.7684Z" fill="black"/>
</svg>
